<svg width="1200" height="800" viewBox="0 0 1200 800" fill="none" xmlns="http://www.w3.org/2000/svg">
  <rect width="1200" height="800" fill="#EFE7FF"/>
  <rect x="295" y="120" width="280" height="520" rx="30" fill="#FFFFFF" stroke="#000000" stroke-width="18"/>
  <rect x="350" y="145" width="120" height="470" rx="18" fill="#111111"/>
  <rect x="540" y="135" width="40" height="490" rx="18" fill="#111111"/>
  <path d="M665 440C665 396.922 699.922 362 743 362H903C946.078 362 981 396.922 981 440V474C981 517.078 946.078 552 903 552H743C699.922 552 665 517.078 665 474V440Z" fill="#FFFFFF" stroke="#000000" stroke-width="18"/>
  <circle cx="770" cy="458" r="20" fill="#40A9FF"/>
  <circle cx="876" cy="458" r="20" fill="#FF79C6"/>
  <path d="M737 458H806" stroke="#000000" stroke-width="14" stroke-linecap="round"/>
  <path d="M771 424V492" stroke="#000000" stroke-width="14" stroke-linecap="round"/>
  <text x="120" y="738" fill="#000000" font-family="Arial, sans-serif" font-size="72" font-weight="700">PS5 SLIM</text>
</svg>
